<svg width="179" height="67" viewBox="0 0 179 67" fill="none" xmlns="http://www.w3.org/2000/svg">
<path fill-rule="evenodd" clip-rule="evenodd" d="M30.332 64.6066C31.9363 64.0689 33.1932 64.9629 33.8576 66.0536C35.0423 65.6558 35.3898 66.2437 35.709 67H19.1825C19.5016 66.2437 19.8469 65.6558 21.0338 66.0536C21.6983 64.9607 22.9529 64.0689 24.5594 64.6066C25.5364 63.0482 29.3593 63.0482 30.3364 64.6066" fill="#097969"/>
<path fill-rule="evenodd" clip-rule="evenodd" d="M21.1518 6.30591C21.5562 6.30591 21.884 6.63377 21.884 7.03814C21.884 7.4425 21.5562 7.77037 21.1518 7.77037C20.7475 7.77037 20.4196 7.4425 20.4196 7.03814C20.4196 6.63377 20.7475 6.30591 21.1518 6.30591ZM25.1649 1.01856C25.5692 1.01856 25.8971 1.34643 25.8971 1.75079C25.8971 2.15516 25.5692 2.48302 25.1649 2.48302C24.7605 2.48302 24.4326 2.15516 24.4326 1.75079C24.4326 1.34643 24.7605 1.01856 25.1649 1.01856ZM10.1443 40.6092C9.89298 40.9261 9.94763 41.3873 10.2646 41.6365C10.5815 41.8879 11.0427 41.8332 11.2919 41.5163C11.5432 41.1993 11.4886 40.7381 11.1717 40.489C10.8547 40.2376 10.3935 40.2923 10.1443 40.6092ZM33.5013 6.2469C33.9057 6.2469 34.2336 6.57476 34.2336 6.97913C34.2336 7.38349 33.9057 7.71135 33.5013 7.71135C33.097 7.71135 32.7691 7.38349 32.7691 6.97913C32.7691 6.57476 33.097 6.2469 33.5013 6.2469ZM30.0806 1.82511C30.485 1.82511 30.8129 2.15297 30.8129 2.55734C30.8129 2.9617 30.485 3.28957 30.0806 3.28957C29.6763 3.28957 29.3484 2.9617 29.3484 2.55734C29.3484 2.15297 29.6763 1.82511 30.0806 1.82511ZM16.1989 3.35295C16.6033 3.35295 16.9311 3.68082 16.9311 4.08518C16.9311 4.48955 16.6033 4.81741 16.1989 4.81741C15.7945 4.81741 15.4667 4.48955 15.4667 4.08518C15.4667 3.68082 15.7945 3.35295 16.1989 3.35295ZM1.30733 24.2903C1.59585 24.0084 2.05923 24.0149 2.34119 24.3034C2.62316 24.592 2.6166 25.0553 2.32807 25.3373C2.03955 25.6193 1.57618 25.6127 1.29421 25.3242C1.01225 25.0357 1.01881 24.5723 1.30733 24.2903ZM9.79244 7.12557C10.1968 7.12557 10.5247 7.45343 10.5247 7.8578C10.5247 8.26216 10.1968 8.59003 9.79244 8.59003C9.38807 8.59003 9.06021 8.26216 9.06021 7.8578C9.06021 7.45343 9.38807 7.12557 9.79244 7.12557ZM4.6428 14.0435C4.93131 13.7615 5.39469 13.7681 5.67666 14.0566C5.95862 14.3473 5.95206 14.8085 5.66354 15.0905C5.37502 15.3724 4.91164 15.3659 4.62968 15.0774C4.34771 14.7866 4.35428 14.3255 4.6428 14.0435ZM1.9412 18.8259C2.22972 18.544 2.6931 18.5505 2.97506 18.839C3.25702 19.1276 3.25047 19.5909 2.96195 19.8729C2.67343 20.1549 2.21005 20.1483 1.92808 19.8598C1.64612 19.5713 1.65268 19.1079 1.9412 18.8259ZM16.0874 23.9362C16.3759 23.6521 16.8393 23.6565 17.1213 23.945C17.4054 24.2335 17.4011 24.6969 17.1125 24.9788C16.824 25.263 16.3606 25.2586 16.0787 24.9701C15.7945 24.6816 15.7989 24.2182 16.0874 23.9362ZM17.5978 16.1746C17.9256 16.4107 18.0021 16.8675 17.7661 17.1954C17.53 17.5232 17.0732 17.5997 16.7453 17.3637C16.4175 17.1276 16.341 16.6708 16.577 16.3429C16.8131 16.015 17.2699 15.9385 17.5978 16.1746ZM16.1989 2.33658C17.165 2.33658 17.9475 3.11908 17.9475 4.08518C17.9475 4.86987 17.4317 5.53215 16.7213 5.7551L16.7104 12.6053L16.2798 13.0162L13.5104 15.6457L13.5017 17.6478V17.6544L13.4886 20.015L15.7115 17.9057L15.7683 17.827L15.7552 17.7943C15.3268 17.2019 15.3005 16.3779 15.7508 15.7484C16.3147 14.9637 17.4076 14.7845 18.1923 15.3462C18.977 15.9101 19.1562 17.003 18.5945 17.7877C18.1377 18.4238 17.3311 18.662 16.6251 18.4281L16.6076 18.45L16.6164 18.4587L16.5683 18.5046L16.5049 18.5921L16.4918 18.5768L13.4864 21.4401L13.4733 24.4827L13.4448 24.4652V35.641L20.7037 42.5217C20.7037 39.925 20.7343 36.8606 20.6557 36.6573L20.6666 29.3197L17.4076 26.0236L17.3726 26.0302C16.7147 26.3515 15.8994 26.2357 15.3574 25.6848C14.6798 24.9963 14.6885 23.8881 15.3792 23.2106C16.0677 22.533 17.1759 22.5417 17.8535 23.2324C18.4021 23.792 18.5005 24.6269 18.1486 25.2827L21.7267 28.6793L21.6939 45.9709C24.9725 46.9326 26.5004 50.1216 26.2687 54.4101C20.6994 54.5456 17.6852 52.397 17.6328 47.1839L11.7137 42.5042C11.0995 42.9261 10.258 42.9195 9.64381 42.4321C8.88535 41.8332 8.75639 40.7338 9.35529 39.9753C9.95419 39.2169 11.0536 39.0879 11.8121 39.6868C12.4175 40.1655 12.6208 40.9655 12.3738 41.654L12.3694 41.689L17.6787 45.9118C17.6787 45.879 17.683 45.8463 17.6852 45.8135C18.8218 45.6342 19.8447 45.6233 20.7562 45.7632C20.73 45.3567 20.719 44.6703 20.7125 43.8529L2.62315 26.3799L2.58818 26.3865C1.92808 26.7056 1.1128 26.5854 0.5751 26.0302C-0.0981135 25.3373 -0.0828145 24.2313 0.607885 23.5581C1.30077 22.8849 2.40676 22.9002 3.07998 23.5909C3.62642 24.1526 3.7204 24.9876 3.36631 25.6433L5.89305 28.2422L5.89961 23.6149L3.25484 20.9133L3.21986 20.9199C2.55977 21.239 1.74448 21.1188 1.20678 20.5636C0.53357 19.8707 0.548869 18.7647 1.23957 18.0915C1.93245 17.4183 3.03845 17.4314 3.71166 18.1243C4.2581 18.686 4.35209 19.521 3.99799 20.1767L6.92472 23.1865L6.9444 23.2062L6.91817 29.2935L8.84382 31.2716L12.4285 34.6683V30.3711L9.09737 27.1974V19.3374L5.95643 16.1309L5.92146 16.1374C5.26136 16.4566 4.44608 16.3364 3.90838 15.7812C3.23517 15.0883 3.24828 13.9823 3.94117 13.3091C4.63405 12.6359 5.74004 12.649 6.41326 13.3419C6.95095 13.8927 7.06024 14.7211 6.69741 15.3965L10.1137 18.9112L10.1181 26.7712L12.4263 28.9591V18.0238L10.3279 16.0325L9.29409 15.0948V14.7517L9.27878 9.52772L9.24818 9.51023C8.55311 9.27854 8.05257 8.62281 8.05257 7.85124C8.05257 6.88514 8.83508 6.10263 9.80118 6.10263C10.7673 6.10263 11.5498 6.88514 11.5498 7.85124C11.5498 8.62063 11.0558 9.2851 10.3279 9.51898V14.603L12.4263 16.6074V15.2369L15.7027 12.155L15.6852 5.75728L15.6546 5.7398C14.9596 5.50811 14.459 4.85238 14.459 4.08081C14.459 3.1147 15.2415 2.3322 16.2076 2.3322L16.2033 2.33658H16.1989ZM52.9721 31.4684C53.2366 31.7744 53.2038 32.2356 52.8999 32.5C52.5939 32.7645 52.1327 32.7317 51.8683 32.4279C51.6038 32.1219 51.6366 31.6607 51.9404 31.3962C52.2464 31.1317 52.7076 31.1645 52.9721 31.4684ZM51.7655 37.7087C52.0388 38.006 52.0213 38.4693 51.724 38.7426C51.4268 39.0158 50.9634 38.9983 50.6901 38.701C50.4169 38.4038 50.4344 37.9404 50.7317 37.6672C51.0289 37.3939 51.4923 37.4114 51.7655 37.7087ZM46.441 45.3479L35.8904 54.1215C30.3451 54.1653 27.4184 56.9018 27.9277 62.7903C33.8074 63.1881 36.4609 60.5892 36.6029 54.9587L47.453 46.0321L47.4683 42.384L50.3513 39.7196H50.3535C50.9983 40.0934 51.8355 40.0212 52.4125 39.4901C53.1229 38.8344 53.1666 37.7284 52.5109 37.018C51.8552 36.3076 50.7492 36.2639 50.0388 36.9196C49.4705 37.4442 49.3306 38.2551 49.6301 38.924L49.6366 38.9589L47.4727 40.9698L47.4902 36.9174L51.4967 33.4355H51.4989C52.1327 33.829 52.9721 33.7831 53.5644 33.2672C54.2945 32.6334 54.371 31.5296 53.7371 30.7995C53.1032 30.0695 51.9994 29.993 51.2694 30.6268C50.6858 31.1339 50.5197 31.9405 50.7994 32.6181L50.806 32.653L46.4323 36.5262L46.4388 41.9272L46.4345 44.6594V45.3479H46.441ZM1.19585 31.5798C0.931378 31.8858 0.964164 32.347 1.26798 32.6115C1.57399 32.876 2.03519 32.8432 2.29966 32.5394C2.56414 32.2334 2.53135 31.7722 2.22753 31.5077C1.92153 31.2432 1.46033 31.276 1.19585 31.5798ZM2.40458 37.8202C2.13136 38.1174 2.14884 38.5808 2.44611 38.854C2.74337 39.1272 3.20675 39.1098 3.47997 38.8125C3.75319 38.5152 3.7357 38.0519 3.43844 37.7786C3.14118 37.5054 2.6778 37.5229 2.40458 37.8202ZM38.0543 3.98901C37.6499 3.98901 37.3221 4.31687 37.3221 4.72124C37.3221 5.1256 37.6499 5.45346 38.0543 5.45346C38.4586 5.45346 38.7865 5.1256 38.7865 4.72124C38.7865 4.31687 38.4586 3.98901 38.0543 3.98901ZM52.9459 24.9242C52.6573 24.6422 52.1939 24.6488 51.912 24.9373C51.63 25.2258 51.6366 25.6892 51.9251 25.9712C52.2136 26.2531 52.677 26.2466 52.959 25.9581C53.2409 25.6695 53.2344 25.2062 52.9459 24.9242ZM44.4629 7.75944C44.0586 7.75944 43.7307 8.0873 43.7307 8.49167C43.7307 8.89603 44.0586 9.2239 44.4629 9.2239C44.8673 9.2239 45.1952 8.89603 45.1952 8.49167C45.1952 8.0873 44.8673 7.75944 44.4629 7.75944ZM49.6126 14.6774C49.3241 14.3954 48.8607 14.402 48.5787 14.6905C48.2967 14.9812 48.3033 15.4424 48.5918 15.7243C48.8803 16.0063 49.3437 15.9997 49.6257 15.7112C49.9076 15.4205 49.9011 14.9593 49.6126 14.6774ZM52.3142 19.4598C52.0256 19.1778 51.5623 19.1844 51.2803 19.4729C50.9983 19.7614 51.0049 20.2248 51.2934 20.5068C51.5819 20.7887 52.0453 20.7822 52.3273 20.4937C52.6092 20.2051 52.6027 19.7418 52.3142 19.4598ZM35.8095 16.3823C36.098 16.0981 36.5614 16.1025 36.8434 16.391C37.1275 16.6795 37.1231 17.1429 36.8346 17.4249C36.5461 17.709 36.0827 17.7046 35.8008 17.4161C35.5166 17.1276 35.521 16.6642 35.8095 16.3823ZM34.8303 28.17C35.1188 27.8859 35.5822 27.8903 35.8642 28.1788C36.1483 28.4673 36.1439 28.9307 35.8554 29.2127C35.5669 29.4968 35.1035 29.4924 34.8215 29.2039C34.5396 28.9154 34.5418 28.452 34.8303 28.17ZM36.2576 33.4924C36.5439 33.7765 36.5461 34.2399 36.262 34.5262C35.9778 34.8126 35.5144 34.8148 35.2281 34.5306C34.9418 34.2465 34.9396 33.7831 35.2237 33.4967C35.5079 33.2104 35.9713 33.2082 36.2576 33.4924ZM35.9603 21.8685C36.2532 22.1461 36.2663 22.6095 35.9887 22.9024C35.7111 23.1953 35.2478 23.2084 34.9549 22.933C34.662 22.6554 34.6489 22.192 34.9265 21.8991C35.2041 21.6062 35.6674 21.5931 35.9603 21.8707V21.8685ZM30.6533 38.1437L29.473 39.2234C29.0031 38.4628 28.3626 37.8114 27.5408 37.3415V16.5768L24.754 13.9932L27.5386 11.3812L25.6785 9.58236L25.6851 3.41852H25.6873C25.9802 3.32672 26.2381 3.16061 26.4435 2.94203L26.4588 2.92454C26.7058 2.65132 26.8632 2.30597 26.9025 1.93002V1.87319L26.9047 1.86008H26.9069V1.74861C26.9069 0.782501 26.1244 0 25.1583 0C24.1922 0 23.4097 0.782501 23.4097 1.74861C23.4097 2.52018 23.9102 3.17591 24.6053 3.4076L24.6359 3.42508L24.6512 8.72336H24.6556L24.6403 10.037L26.0414 11.425L23.3594 14.0063L24.0173 14.6708L26.5157 17.0445V28.7034L21.6698 23.4029V8.70806H21.672C22.3824 8.48511 22.8982 7.82064 22.8982 7.03814C22.8982 6.07203 22.1157 5.28953 21.1496 5.28953C20.1835 5.28953 19.401 6.07203 19.401 7.03814C19.401 7.80971 19.9016 8.46544 20.5966 8.69713L20.6272 8.71461L20.6469 15.862V23.7898L26.5157 30.2181V37.4726C23.0622 40.3513 22.4983 46.2878 27.0293 48.8517C30.0916 47.2604 31.1407 43.2299 29.9626 40.2136C31.7003 38.6639 33.4095 37.1011 34.933 35.5623C35.6172 35.912 36.439 35.7874 36.9833 35.241C37.663 34.5546 37.6587 33.4465 36.9723 32.7667C36.286 32.0869 35.1778 32.0935 34.4981 32.7798C33.9538 33.3284 33.8489 34.1459 34.1789 34.7994L34.1877 34.8322C33.3483 35.6847 32.5025 36.4431 31.6194 37.2519V26.8783L34.6642 23.9909L34.6882 23.9668C35.3811 24.2991 36.1986 24.157 36.7275 23.5953C37.3898 22.8936 37.3592 21.7854 36.6576 21.1232C35.956 20.4609 34.8478 20.4915 34.1855 21.1931C33.6544 21.7548 33.5691 22.5745 33.9145 23.2193L33.9232 23.2521L31.6194 25.4641V18.7757L34.0237 16.4959L34.0194 16.4915V8.6403H34.0216C34.7319 8.41735 35.2478 7.75507 35.2478 6.97038C35.2478 6.00428 34.4653 5.22177 33.4992 5.22177C32.5331 5.22177 31.7506 6.00428 31.7506 6.97038C31.7506 7.74195 32.2511 8.39768 32.9462 8.62937L32.9768 8.64686L32.9855 11.3594L30.6008 9.09712V4.21633C31.3331 3.98245 31.8292 3.31798 31.8292 2.54641C31.8292 1.5803 31.0467 0.797802 30.0806 0.797802C29.1145 0.797802 28.332 1.5803 28.332 2.54641C28.332 3.31798 28.8326 3.97371 29.5276 4.2054L29.5582 4.22289L29.5714 9.20423L29.5626 9.52116L32.9899 12.7736L32.9986 16.0522L30.6533 18.2533V38.1437ZM42.3624 41.7414C42.6138 42.0583 42.5591 42.5195 42.2422 42.7687C41.9253 43.0201 41.4641 42.9654 41.2149 42.6485C40.9635 42.3316 41.0182 41.8704 41.3351 41.6212C41.652 41.3698 42.1132 41.4245 42.3624 41.7414ZM43.1602 41.1097C43.7591 41.8682 43.6302 42.9676 42.8717 43.5665C42.2575 44.0518 41.416 44.0583 40.8018 43.6386H40.7996L36.5789 46.9719C36.5155 52.1106 33.591 54.8122 27.9211 54.3357C27.5211 49.667 29.1976 47.0375 32.5811 46.0889L32.6227 44.0824L33.5538 43.1534L40.8127 36.2727V34.9743L36.1439 30.2531L36.109 30.2596C35.451 30.5809 34.6358 30.4651 34.0937 29.9143C33.4161 29.2258 33.4248 28.1176 34.1155 27.44C34.8041 26.7624 35.9122 26.7712 36.5898 27.4619C37.1385 28.0214 37.2368 28.8564 36.8849 29.5121L40.8149 33.512V25.0947L40.7865 25.1122L40.7734 22.1527L37.1275 18.4631L37.0926 18.4697C36.4346 18.791 35.6194 18.6751 35.0773 18.1243C34.3997 17.4358 34.4084 16.3276 35.0991 15.65C35.7876 14.9724 36.8958 14.9834 37.5734 15.6719C38.122 16.2314 38.2204 17.0664 37.8685 17.7221L40.2313 20.1265L40.7712 20.6401L40.7603 18.2795H40.7581V18.2729L40.7515 16.2708L37.9822 13.6435L37.5516 13.2326L37.5406 6.3846H37.5384C36.8281 6.16165 36.3122 5.49718 36.3122 4.71468C36.3122 3.74858 37.0947 2.96607 38.0608 2.96607C39.0269 2.96607 39.8094 3.74858 39.8094 4.71468C39.8094 5.48625 39.3089 6.14198 38.6138 6.37367L38.5832 6.39116L38.5658 12.7889L41.8422 15.8708V17.2413L43.9405 15.2369V10.1528C43.2127 9.91678 42.7187 9.25231 42.7187 8.48511C42.7187 7.51901 43.5012 6.73651 44.4673 6.73651C45.4334 6.73651 46.2159 7.51901 46.2159 8.48511C46.2159 9.25669 45.7154 9.91241 45.0203 10.1441L44.9897 10.1616L44.9744 15.3855V15.7287L43.9405 16.6664L41.8422 18.6576V29.593L44.1504 27.405L44.1547 19.545L47.5711 16.0303C47.2082 15.3528 47.3175 14.5265 47.8552 13.9757C48.5284 13.2828 49.6366 13.2697 50.3273 13.9429C51.0202 14.6162 51.0333 15.7243 50.3601 16.415C49.8202 16.968 49.0049 17.0883 48.347 16.7713L48.312 16.7648L45.1711 19.9713V27.8313L41.84 31.005V35.3022L45.4247 31.9055L47.3503 29.9274L47.3241 23.8401L47.3438 23.8204L50.2705 20.815C49.9164 20.1571 50.0082 19.3221 50.5568 18.7604C51.23 18.0675 52.3382 18.0544 53.0289 18.7276C53.7218 19.4008 53.7349 20.509 53.0617 21.1997C52.524 21.7527 51.7065 21.8729 51.0486 21.5559L51.0136 21.5494L48.3689 24.251L48.3754 28.8782L50.9022 26.2815C50.5481 25.6236 50.6399 24.7887 51.1885 24.2269C51.8617 23.534 52.9699 23.5209 53.6606 24.1942C54.3535 24.8674 54.3666 25.9755 53.6934 26.6662C53.1535 27.2192 52.3382 27.3395 51.6803 27.0225L51.6453 27.016L33.556 44.4889C33.5516 45.0201 33.5451 45.4965 33.5341 45.8769C34.439 45.7173 35.4445 45.6561 36.5461 45.6911L40.1526 42.8234L40.1482 42.7884C39.8991 42.0999 40.1023 41.2999 40.71 40.8212C41.4684 40.2223 42.5679 40.3513 43.1668 41.1097H43.1602ZM26.3823 62.6351C26.5288 57.1925 23.9889 53.6035 18.2076 54.174L7.7269 45.4594V42.0387L7.73346 36.6377L3.35975 32.7645L3.36631 32.7295C3.64609 32.0541 3.47997 31.2454 2.89637 30.7383C2.16633 30.1044 1.06252 30.1831 0.428655 30.911C-0.205215 31.641 -0.126529 32.7448 0.601328 33.3787C1.19367 33.8924 2.033 33.9383 2.66687 33.547L6.67336 37.0267L6.69085 41.0791L4.52695 39.0682L4.53351 39.0333C4.83514 38.3666 4.69307 37.5535 4.12477 37.0289C3.4144 36.3732 2.3084 36.4169 1.65268 37.1273C0.996949 37.8377 1.04066 38.9436 1.75103 39.5994C2.32808 40.1305 3.16522 40.2026 3.81002 39.8311L6.69303 42.4933L6.70833 46.1413L17.6065 55.1073C17.8185 60.222 20.6731 63.9662 26.3758 62.6329H26.3823V62.6351ZM11.7115 42.5086V42.5021V42.5086ZM25.6851 3.4229H25.6807H25.6851ZM34.0216 8.65341H34.0172H34.0216ZM3.35757 25.6521H3.35101H3.35757ZM3.99144 20.1877H3.98488H3.99144ZM18.1442 25.2892H18.1377H18.1442ZM16.7191 5.75947H16.7147H16.7191ZM50.3492 39.7218V39.7152V39.7218ZM51.4967 33.4377V33.4312V33.4377ZM3.81876 39.8332V39.8267V39.8332ZM2.67124 33.5492V33.5426V33.5492ZM50.8956 26.2859H50.9022H50.8956ZM50.2639 20.8215H50.2683H50.2639ZM37.8663 17.7352H37.8597H37.8663ZM36.8871 29.523H36.8805H36.8871ZM37.5363 6.39553H37.5406H37.5363ZM40.7974 43.6408V43.6343V43.6408ZM6.89412 42.2398L3.51494 39.2365L6.89412 42.2398Z" fill="#097969"/>
<path d="M84.1497 13.9975V40.3643C84.1497 43.514 83.929 45.8637 83.4896 47.4112C83.0503 49.1708 82.3028 50.6571 81.247 51.8724C79.1881 54.2832 76.4602 55.4876 73.0658 55.4876C70.4975 55.4876 68.0953 54.8188 65.8615 53.4811L68.8713 48.2287C70.3663 49.232 71.7652 49.7325 73.0679 49.7325C74.8974 49.7325 76.1652 49.0374 76.869 47.6473C77.6077 46.2571 77.9771 43.8288 77.9771 40.3622V13.9954H84.1519L84.1497 13.9975Z" fill="#097969"/>
<path d="M93.9157 54.7486V13.9973H102.466C106.567 13.9973 109.804 14.4017 112.18 15.2104C114.731 16.0016 117.045 17.3481 119.122 19.2475C123.327 23.0835 125.43 28.1238 125.43 34.3707C125.43 40.6176 123.24 45.7017 118.857 49.5727C116.659 51.5093 114.353 52.8535 111.942 53.6098C109.69 54.366 106.495 54.7442 102.361 54.7442H93.9157V54.7486ZM100.064 48.9694H102.836C105.599 48.9694 107.894 48.6787 109.725 48.0995C111.555 47.4831 113.209 46.5083 114.687 45.1706C117.712 42.4078 119.227 38.81 119.227 34.3751C119.227 29.9402 117.732 26.2813 114.739 23.501C112.047 21.0201 108.079 19.7786 102.836 19.7786H100.064V48.9694Z" fill="#097969"/>
<path d="M139.312 13.9973V54.7486H133.163V13.9973H139.312Z" fill="#097969"/>
<path d="M155.252 29.9403H172.83V13.9995H178.979V54.7508H172.83V35.7216H155.252V54.7508H149.104V13.9995H155.252V29.9403Z" fill="#097969"/>
</svg>
