<svg width="107" height="40" viewBox="0 0 107 40" fill="none" xmlns="http://www.w3.org/2000/svg">
<path fill-rule="evenodd" clip-rule="evenodd" d="M18.0809 38.512C19.0373 38.1915 19.7865 38.7244 20.1826 39.3746C20.8887 39.1374 21.0959 39.4879 21.2861 39.9387H11.4347C11.6249 39.4879 11.8308 39.1374 12.5383 39.3746C12.9343 38.7231 13.6822 38.1915 14.6399 38.512C15.2223 37.5831 17.5011 37.5831 18.0835 38.512" fill="#888888"/>
<path fill-rule="evenodd" clip-rule="evenodd" d="M12.6086 3.75896C12.8497 3.75896 13.0451 3.9544 13.0451 4.19544C13.0451 4.43648 12.8497 4.63192 12.6086 4.63192C12.3676 4.63192 12.1721 4.43648 12.1721 4.19544C12.1721 3.9544 12.3676 3.75896 12.6086 3.75896ZM15.0008 0.607167C15.2418 0.607167 15.4373 0.802606 15.4373 1.04365C15.4373 1.28469 15.2418 1.48013 15.0008 1.48013C14.7598 1.48013 14.5643 1.28469 14.5643 1.04365C14.5643 0.802606 14.7598 0.607167 15.0008 0.607167ZM6.04705 24.2072C5.89721 24.3961 5.92979 24.671 6.11871 24.8195C6.30764 24.9694 6.58256 24.9368 6.73109 24.7479C6.88093 24.559 6.84835 24.284 6.65943 24.1355C6.4705 23.9857 6.19559 24.0182 6.04705 24.2072ZM19.9702 3.72378C20.2112 3.72378 20.4067 3.91922 20.4067 4.16026C20.4067 4.4013 20.2112 4.59674 19.9702 4.59674C19.7291 4.59674 19.5337 4.4013 19.5337 4.16026C19.5337 3.91922 19.7291 3.72378 19.9702 3.72378ZM17.9311 1.08795C18.1721 1.08795 18.3676 1.28339 18.3676 1.52443C18.3676 1.76547 18.1721 1.96091 17.9311 1.96091C17.69 1.96091 17.4946 1.76547 17.4946 1.52443C17.4946 1.28339 17.69 1.08795 17.9311 1.08795ZM9.65617 1.9987C9.89721 1.9987 10.0927 2.19414 10.0927 2.43518C10.0927 2.67622 9.89721 2.87166 9.65617 2.87166C9.41513 2.87166 9.21969 2.67622 9.21969 2.43518C9.21969 2.19414 9.41513 1.9987 9.65617 1.9987ZM0.779298 14.4795C0.951285 14.3114 1.22751 14.3153 1.39559 14.4873C1.56366 14.6593 1.55975 14.9355 1.38777 15.1036C1.21578 15.2717 0.939559 15.2678 0.771481 15.0958C0.603403 14.9238 0.607311 14.6476 0.779298 14.4795ZM5.83728 4.24756C6.07832 4.24756 6.27376 4.443 6.27376 4.68404C6.27376 4.92508 6.07832 5.12052 5.83728 5.12052C5.59624 5.12052 5.4008 4.92508 5.4008 4.68404C5.4008 4.443 5.59624 4.24756 5.83728 4.24756ZM2.76757 8.37134C2.93956 8.20326 3.21578 8.20717 3.38386 8.37915C3.55194 8.55244 3.54803 8.82736 3.37604 8.99544C3.20406 9.16352 2.92783 9.15961 2.75975 8.98762C2.59168 8.81433 2.59559 8.53941 2.76757 8.37134ZM1.15715 11.2222C1.32914 11.0541 1.60536 11.058 1.77344 11.23C1.94151 11.402 1.93761 11.6782 1.76562 11.8463C1.59363 12.0143 1.31741 12.0104 1.14933 11.8384C0.981254 11.6665 0.985163 11.3902 1.15715 11.2222ZM9.58972 14.2684C9.76171 14.099 10.0379 14.1016 10.206 14.2736C10.3754 14.4456 10.3728 14.7218 10.2008 14.8899C10.0288 15.0593 9.75259 15.0567 9.58451 14.8847C9.41513 14.7127 9.41774 14.4365 9.58972 14.2684ZM10.49 9.64169C10.6855 9.78241 10.7311 10.0547 10.5904 10.2502C10.4497 10.4456 10.1773 10.4912 9.9819 10.3505C9.78646 10.2098 9.74086 9.93746 9.88158 9.74202C10.0223 9.54658 10.2946 9.50098 10.49 9.64169ZM9.65617 1.39283C10.2321 1.39283 10.6985 1.85928 10.6985 2.43518C10.6985 2.90293 10.391 3.29772 9.96757 3.43062L9.96106 7.51401L9.70438 7.75896L8.05357 9.32638L8.04836 10.5199V10.5238L8.04054 11.9309L9.36562 10.6736L9.3995 10.6267L9.39168 10.6072C9.1363 10.2541 9.12067 9.76287 9.38907 9.38762C9.72523 8.91987 10.3767 8.81303 10.8444 9.14788C11.3122 9.48404 11.419 10.1355 11.0842 10.6033C10.8119 10.9824 10.3311 11.1244 9.91024 10.985L9.89982 10.998L9.90503 11.0033L9.87637 11.0306L9.83858 11.0827L9.83077 11.0736L8.03923 12.7805L8.03142 14.5941L8.01448 14.5837V21.2456L12.3415 25.3472C12.3415 23.7994 12.3598 21.9726 12.3128 21.8515L12.3194 17.4775L10.3767 15.5127L10.3558 15.5166C9.96367 15.7081 9.47767 15.6391 9.15454 15.3108C8.75063 14.9003 8.75585 14.2397 9.16757 13.8358C9.578 13.4319 10.2386 13.4371 10.6425 13.8489C10.9695 14.1824 11.0282 14.6801 10.8184 15.071L12.9513 17.0958L12.9317 27.4033C14.8861 27.9765 15.7969 29.8775 15.6588 32.4339C12.3389 32.5147 10.5422 31.2339 10.5109 28.1264L6.98256 25.3368C6.61643 25.5883 6.1148 25.5844 5.74868 25.2938C5.29656 24.9368 5.21969 24.2814 5.57669 23.8293C5.9337 23.3772 6.58907 23.3003 7.04119 23.6573C7.4021 23.9427 7.52327 24.4195 7.37604 24.83L7.37344 24.8508L10.5383 27.3681C10.5383 27.3485 10.5409 27.329 10.5422 27.3094C11.2197 27.2026 11.8295 27.1961 12.3728 27.2795C12.3571 27.0371 12.3506 26.628 12.3467 26.1407L1.56366 15.7251L1.54282 15.729C1.14933 15.9192 0.663339 15.8476 0.342817 15.5166C-0.0584855 15.1036 -0.0493658 14.4443 0.362361 14.043C0.77539 13.6417 1.43467 13.6508 1.83598 14.0625C2.16171 14.3974 2.21773 14.8951 2.00666 15.286L3.51285 16.8352L3.51676 14.0769L1.94021 12.4665L1.91936 12.4704C1.52588 12.6606 1.03989 12.5889 0.719365 12.258C0.318062 11.845 0.327181 11.1857 0.738908 10.7844C1.15194 10.3831 1.81122 10.3909 2.21252 10.8039C2.53826 11.1388 2.59428 11.6365 2.38321 12.0274L4.12783 13.8215L4.13956 13.8332L4.12392 17.4619L5.27181 18.641L7.40861 20.6658V18.1042L5.42295 16.2124V11.527L3.55063 9.61564L3.52979 9.61954C3.1363 9.80977 2.65031 9.73811 2.32979 9.40717C1.92849 8.99414 1.9363 8.33485 2.34933 7.93355C2.76236 7.53225 3.42164 7.54007 3.82295 7.9531C4.14347 8.28143 4.20861 8.77524 3.99233 9.17785L6.02881 11.273L6.03141 15.9583L7.40731 17.2625V10.744L6.1565 9.557L5.54021 8.99804V8.79349L5.53109 5.67948L5.51285 5.66906C5.09852 5.53095 4.80015 5.14006 4.80015 4.68013C4.80015 4.10423 5.26659 3.63778 5.84249 3.63778C6.41839 3.63778 6.88484 4.10423 6.88484 4.68013C6.88484 5.13876 6.59037 5.53485 6.1565 5.67427V8.70489L7.40731 9.89967V9.08274L9.36041 7.2456L9.34998 3.43192L9.33174 3.4215C8.91741 3.28339 8.61904 2.89251 8.61904 2.43257C8.61904 1.85668 9.08549 1.39023 9.66138 1.39023L9.65878 1.39283H9.65617ZM31.5767 18.7583C31.7343 18.9407 31.7148 19.2156 31.5337 19.3733C31.3513 19.5309 31.0764 19.5114 30.9187 19.3303C30.7611 19.1479 30.7806 18.873 30.9617 18.7153C31.1441 18.5577 31.419 18.5772 31.5767 18.7583ZM30.8575 22.4782C31.0203 22.6554 31.0099 22.9316 30.8327 23.0945C30.6555 23.2573 30.3793 23.2469 30.2164 23.0697C30.0536 22.8925 30.064 22.6163 30.2412 22.4534C30.4184 22.2906 30.6946 22.301 30.8575 22.4782ZM27.6835 27.0319L21.3943 32.2619C18.0887 32.2879 16.3441 33.9192 16.6477 37.4293C20.1526 37.6664 21.7343 36.1173 21.819 32.7609L28.2868 27.4397L28.2959 25.2651L30.0145 23.6769H30.0158C30.4001 23.8997 30.8992 23.8567 31.2431 23.5401C31.6666 23.1492 31.6927 22.4899 31.3018 22.0665C30.9109 21.643 30.2516 21.6169 29.8282 22.0078C29.4894 22.3205 29.406 22.8039 29.5845 23.2026L29.5884 23.2235L28.2985 24.4221L28.3089 22.0065L30.6972 19.9309H30.6985C31.0764 20.1655 31.5767 20.1381 31.9298 19.8306C32.365 19.4528 32.4106 18.7948 32.0327 18.3596C31.6549 17.9244 30.9969 17.8788 30.5617 18.2567C30.2138 18.559 30.1148 19.0397 30.2816 19.4436L30.2855 19.4645L27.6783 21.7733L27.6822 24.9928L27.6796 26.6215V27.0319H27.6835ZM0.71285 18.8248C0.555195 19.0072 0.574739 19.2821 0.755847 19.4397C0.938257 19.5974 1.21318 19.5778 1.37083 19.3967C1.52849 19.2143 1.50894 18.9394 1.32783 18.7818C1.14542 18.6241 0.870504 18.6437 0.71285 18.8248ZM1.43337 22.5446C1.2705 22.7218 1.28093 22.998 1.45813 23.1609C1.63533 23.3238 1.91155 23.3134 2.07441 23.1362C2.23728 22.959 2.22686 22.6827 2.04966 22.5199C1.87246 22.357 1.59624 22.3674 1.43337 22.5446ZM22.6842 2.37785C22.4431 2.37785 22.2477 2.57329 22.2477 2.81433C22.2477 3.05538 22.4431 3.25081 22.6842 3.25081C22.9252 3.25081 23.1207 3.05538 23.1207 2.81433C23.1207 2.57329 22.9252 2.37785 22.6842 2.37785ZM31.5611 14.8573C31.3891 14.6893 31.1128 14.6932 30.9448 14.8651C30.7767 15.0371 30.7806 15.3134 30.9526 15.4814C31.1246 15.6495 31.4008 15.6456 31.5689 15.4736C31.737 15.3016 31.733 15.0254 31.5611 14.8573ZM26.5044 4.62541C26.2633 4.62541 26.0679 4.82085 26.0679 5.06189C26.0679 5.30293 26.2633 5.49837 26.5044 5.49837C26.7454 5.49837 26.9409 5.30293 26.9409 5.06189C26.9409 4.82085 26.7454 4.62541 26.5044 4.62541ZM29.5741 8.74919C29.4021 8.58111 29.1259 8.58502 28.9578 8.757C28.7897 8.93029 28.7936 9.20521 28.9656 9.37329C29.1376 9.54137 29.4138 9.53746 29.5819 9.36547C29.75 9.19218 29.7461 8.91726 29.5741 8.74919ZM31.1845 11.6C31.0125 11.4319 30.7363 11.4358 30.5682 11.6078C30.4001 11.7798 30.4041 12.056 30.576 12.2241C30.748 12.3922 31.0243 12.3883 31.1923 12.2163C31.3604 12.0443 31.3565 11.7681 31.1845 11.6ZM21.3461 9.76547C21.5181 9.59609 21.7943 9.5987 21.9624 9.77069C22.1317 9.94267 22.1291 10.2189 21.9571 10.387C21.7852 10.5564 21.5089 10.5537 21.3409 10.3818C21.1715 10.2098 21.1741 9.93355 21.3461 9.76547ZM20.7624 16.7922C20.9343 16.6228 21.2106 16.6254 21.3786 16.7974C21.548 16.9694 21.5454 17.2456 21.3734 17.4137C21.2014 17.5831 20.9252 17.5805 20.7571 17.4085C20.5891 17.2365 20.5904 16.9603 20.7624 16.7922ZM21.6132 19.9648C21.7839 20.1342 21.7852 20.4104 21.6158 20.5811C21.4464 20.7518 21.1702 20.7531 20.9995 20.5837C20.8288 20.4143 20.8275 20.1381 20.9969 19.9674C21.1663 19.7967 21.4425 19.7954 21.6132 19.9648ZM21.436 13.0358C21.6106 13.2013 21.6184 13.4775 21.4529 13.6521C21.2874 13.8267 21.0112 13.8345 20.8366 13.6704C20.662 13.5049 20.6542 13.2287 20.8197 13.0541C20.9852 12.8795 21.2614 12.8717 21.436 13.0371V13.0358ZM18.2725 22.7375L17.5689 23.3811C17.2887 22.9277 16.907 22.5394 16.4171 22.2593V9.88143L14.7558 8.34137L16.4158 6.78437L15.307 5.71205L15.3109 2.03779H15.3122C15.4868 1.98306 15.6405 1.88404 15.763 1.75375L15.7721 1.74332C15.9194 1.58046 16.0132 1.37459 16.0366 1.15049V1.11661L16.0379 1.1088H16.0392V1.04235C16.0392 0.466449 15.5728 0 14.9969 0C14.421 0 13.9545 0.466449 13.9545 1.04235C13.9545 1.50228 14.2529 1.89316 14.6672 2.03127L14.6855 2.04169L14.6946 5.2H14.6972L14.6881 5.98306L15.5233 6.81042L13.9246 8.34919L14.3168 8.74528L15.806 10.1603V17.1101L12.9174 13.9505V5.19088H12.9187C13.3422 5.05798 13.6497 4.66189 13.6497 4.19544C13.6497 3.61954 13.1832 3.15309 12.6073 3.15309C12.0314 3.15309 11.565 3.61954 11.565 4.19544C11.565 4.65537 11.8633 5.04626 12.2777 5.18437L12.2959 5.19479L12.3076 9.45538V14.1811L15.806 18.013V22.3375C13.7474 24.0534 13.4112 27.5922 16.1122 29.1205C17.9376 28.172 18.563 25.7694 17.8607 23.9713C18.8966 23.0476 19.9155 22.116 20.8236 21.1987C21.2314 21.4072 21.7213 21.3329 22.0457 21.0072C22.451 20.598 22.4484 19.9375 22.0392 19.5322C21.6301 19.127 20.9695 19.1309 20.5643 19.5401C20.2399 19.8671 20.1773 20.3544 20.3741 20.744L20.3793 20.7635C19.879 21.2717 19.3747 21.7238 18.8484 22.2059V16.0222L20.6633 14.301L20.6777 14.2866C21.0907 14.4847 21.578 14.4 21.8933 14.0651C22.2881 13.6469 22.2699 12.9863 21.8516 12.5915C21.4334 12.1967 20.7728 12.215 20.378 12.6332C20.0614 12.9681 20.0106 13.4567 20.2164 13.841L20.2216 13.8606L18.8484 15.1792V11.1922L20.2816 9.83323L20.279 9.83062V5.15049H20.2803C20.7037 5.01759 21.0112 4.6228 21.0112 4.15505C21.0112 3.57915 20.5448 3.1127 19.9689 3.1127C19.393 3.1127 18.9265 3.57915 18.9265 4.15505C18.9265 4.61498 19.2249 5.00586 19.6392 5.14397L19.6575 5.1544L19.6627 6.77134L18.2412 5.4228V2.51336C18.6777 2.37394 18.9734 1.97785 18.9734 1.51792C18.9734 0.94202 18.507 0.47557 17.9311 0.47557C17.3552 0.47557 16.8887 0.94202 16.8887 1.51792C16.8887 1.97785 17.1871 2.36873 17.6014 2.50684L17.6197 2.51726L17.6275 5.48665L17.6223 5.67557L19.6653 7.61433L19.6705 9.56873L18.2725 10.8808V22.7375ZM25.2523 24.8821C25.4021 25.071 25.3695 25.3459 25.1806 25.4945C24.9917 25.6443 24.7168 25.6117 24.5682 25.4228C24.4184 25.2339 24.451 24.959 24.6399 24.8104C24.8288 24.6606 25.1037 24.6932 25.2523 24.8821ZM25.7278 24.5055C26.0848 24.9577 26.008 25.613 25.5558 25.97C25.1897 26.2593 24.6881 26.2632 24.322 26.013H24.3207L21.8047 28C21.7669 31.0632 20.0236 32.6736 16.6438 32.3896C16.4054 29.6065 17.4047 28.0391 19.4216 27.4736L19.4464 26.2775L20.0014 25.7238L24.3285 21.6222V20.8482L21.5454 18.0339L21.5246 18.0378C21.1324 18.2293 20.6464 18.1603 20.3233 17.8319C19.9194 17.4215 19.9246 16.7609 20.3363 16.357C20.7467 15.9531 21.4073 15.9583 21.8112 16.37C22.1383 16.7036 22.1969 17.2013 21.9871 17.5922L24.3298 19.9765V14.959L24.3128 14.9694L24.305 13.2052L22.1317 11.0059L22.1109 11.0098C21.7187 11.2013 21.2327 11.1322 20.9096 10.8039C20.5057 10.3935 20.5109 9.7329 20.9226 9.32899C21.333 8.92508 21.9936 8.9316 22.3975 9.34202C22.7246 9.67557 22.7832 10.1733 22.5734 10.5642L23.9819 11.9974L24.3037 12.3036L24.2972 10.8964H24.2959V10.8925L24.292 9.69902L22.6412 8.1329L22.3845 7.88795L22.378 3.80586H22.3767C21.9532 3.67297 21.6457 3.27687 21.6457 2.81042C21.6457 2.23453 22.1122 1.76808 22.6881 1.76808C23.264 1.76808 23.7304 2.23453 23.7304 2.81042C23.7304 3.27036 23.4321 3.66124 23.0177 3.79935L22.9995 3.80977L22.9891 7.62345L24.9422 9.46059V10.2775L26.193 9.08274V6.05212C25.7591 5.9114 25.4646 5.51531 25.4646 5.05798C25.4646 4.48209 25.9311 4.01564 26.507 4.01564C27.0829 4.01564 27.5493 4.48209 27.5493 5.05798C27.5493 5.51792 27.251 5.9088 26.8366 6.04691L26.8184 6.05733L26.8093 9.17134V9.3759L26.193 9.93485L24.9422 11.1218V17.6404L26.3181 16.3362L26.3207 11.6508L28.3572 9.5557C28.1409 9.15179 28.206 8.65928 28.5265 8.33095C28.9278 7.91792 29.5884 7.9101 30.0001 8.3114C30.4132 8.7127 30.421 9.37329 30.0197 9.78502C29.6979 10.1147 29.2119 10.1863 28.8197 9.99739L28.7988 9.99349L26.9265 11.9049V16.5902L24.9409 18.4821V21.0436L27.0777 19.0189L28.2256 17.8397L28.2099 14.2111L28.2216 14.1993L29.9663 12.4078C29.7552 12.0156 29.8099 11.5179 30.137 11.1831C30.5383 10.77 31.1988 10.7622 31.6106 11.1635C32.0236 11.5648 32.0314 12.2254 31.6301 12.6371C31.3096 12.9668 30.8223 13.0384 30.4301 12.8495L30.4093 12.8456L28.8327 14.456L28.8366 17.2143L30.3428 15.6665C30.1317 15.2743 30.1865 14.7765 30.5135 14.4417C30.9148 14.0287 31.5754 14.0208 31.9871 14.4222C32.4001 14.8235 32.408 15.484 32.0067 15.8958C31.6848 16.2254 31.1988 16.2971 30.8067 16.1081L30.7858 16.1042L20.0028 26.5199C20.0001 26.8365 19.9962 27.1205 19.9897 27.3472C20.5291 27.2521 21.1285 27.2156 21.7852 27.2365L23.935 25.527L23.9324 25.5062C23.7839 25.0958 23.905 24.6189 24.2672 24.3336C24.7194 23.9765 25.3747 24.0534 25.7317 24.5055H25.7278ZM15.7265 37.3368C15.8138 34.0925 14.2998 31.9531 10.8536 32.2932L4.60601 27.0984V25.0593L4.60992 21.8397L2.00275 19.5309L2.00666 19.5101C2.17343 19.1075 2.07441 18.6254 1.72653 18.3231C1.29135 17.9453 0.633371 17.9922 0.255521 18.4261C-0.122329 18.8612 -0.0754243 19.5192 0.358452 19.8971C0.711546 20.2033 1.21187 20.2306 1.58972 19.9974L3.978 22.0717L3.98842 24.4873L2.69852 23.2886L2.70243 23.2678C2.88223 22.8704 2.79754 22.3857 2.45878 22.073C2.03532 21.6821 1.37604 21.7081 0.985162 22.1316C0.594282 22.555 0.62034 23.2143 1.04379 23.6052C1.38777 23.9218 1.88679 23.9648 2.27115 23.7433L3.98972 25.3303L3.99884 27.5049L10.4953 32.8495C10.6216 35.8984 12.3233 38.1303 15.7226 37.3355H15.7265V37.3368ZM6.98125 25.3394V25.3355V25.3394ZM15.3109 2.04039H15.3083H15.3109ZM20.2803 5.15831H20.2777H20.2803ZM2.00145 15.2912H1.99754H2.00145ZM2.3793 12.0339H2.37539H2.3793ZM10.8158 15.0749H10.8119H10.8158ZM9.96627 3.43323H9.96366H9.96627ZM30.0132 23.6782V23.6743V23.6782ZM30.6972 19.9322V19.9283V19.9322ZM2.27637 23.7446V23.7407V23.7446ZM1.59233 19.9987V19.9948V19.9987ZM30.3389 15.6691H30.3428H30.3389ZM29.9624 12.4117H29.965H29.9624ZM22.5721 10.572H22.5682H22.5721ZM21.9884 17.5987H21.9845H21.9884ZM22.3754 3.81238H22.378H22.3754ZM24.3194 26.0143V26.0104V26.0143ZM4.10959 25.1792L2.09526 23.3889L4.10959 25.1792Z" fill="#888888"/>
<path d="M50.1617 8.34395V24.0612C50.1617 25.9387 50.0301 27.3394 49.7682 28.2619C49.5063 29.3107 49.0607 30.1967 48.4314 30.9211C47.2041 32.3583 45.578 33.0762 43.5545 33.0762C42.0236 33.0762 40.5917 32.6775 39.2601 31.8801L41.0542 28.7492C41.9454 29.3472 42.7793 29.6456 43.5558 29.6456C44.6464 29.6456 45.4021 29.2312 45.8216 28.4026C46.262 27.5739 46.4822 26.1264 46.4822 24.0599V8.34264H50.163L50.1617 8.34395Z" fill="#888888"/>
<path d="M55.9832 32.6357V8.3438H61.0803C63.5246 8.3438 65.4542 8.58484 66.8705 9.06692C68.391 9.53858 69.7708 10.3412 71.0086 11.4734C73.5155 13.7601 74.7689 16.7646 74.7689 20.4884C74.7689 24.2122 73.4633 27.2428 70.851 29.5503C69.5402 30.7047 68.1656 31.506 66.7285 31.9568C65.3865 32.4076 63.4816 32.633 61.0177 32.633H55.9832V32.6357ZM59.6484 29.1907H61.3005C62.9474 29.1907 64.3155 29.0174 65.4073 28.6721C66.4979 28.3047 67.4842 27.7236 68.365 26.9262C70.1682 25.2793 71.0712 23.1347 71.0712 20.491C71.0712 17.8474 70.18 15.6663 68.3962 14.0089C66.791 12.5301 64.4262 11.7901 61.3005 11.7901H59.6484V29.1907Z" fill="#888888"/>
<path d="M83.0438 8.3438V32.6357H79.3786V8.3438H83.0438Z" fill="#888888"/>
<path d="M92.5461 17.8474H103.024V8.34513H106.689V32.637H103.024V21.2937H92.5461V32.637H88.8809V8.34513H92.5461V17.8474Z" fill="#888888"/>
</svg>
